<?xml version="1.0" encoding="UTF-8"?>
<svg id="dark" xmlns="http://www.w3.org/2000/svg" viewBox="0 0 1672.44 1417.32">
  <defs>
    <style>
      .cls-1 {
        fill: #273646;
      }

      .cls-2 {
        fill: #158554;
      }
    </style>
  </defs>
  <g>
    <path class="cls-2" d="M768.7,497.13c-40.23-.59-40.23,62.61,0,62.01,40.23.59,40.23-62.61,0-62.01Z"/>
    <path class="cls-1" d="M857.48,594.3c-34.99-1.69-23.97,38.03,0,42.36,24.91-4.52,35.63-43.76,0-42.36Z"/>
    <path class="cls-2" d="M946.97,497.13c-40.23-.59-40.23,62.61,0,62.01,40.23.59,40.23-62.61,0-62.01Z"/>
    <path class="cls-2" d="M851.24,39.83C250.35,28.36-16.36,784.53,368.21,1171.87c31,31.24,66.26,60.07,105.9,85.9,6.79,4.45,15.86.3,16.76-7.75,6.07-52.92,22.23-111.61,48.3-166.7,48.54-102.66,131.37-192.71,247.19-209.23.54-.12,1.08-.12,1.56-.18,32.86-.84,43.91,9.13,95.33,5.71,110.83-12.25,126.99-29.8,206.34-66.44,40.25-21.81,91.85,15.26,72.45,60.61-23.79,51-172.94,81.16-202.2,86.68-6.25-.06-42.53,8.59-45.95,22.41-6.79,11.35,5.29,29.07,18.02,30.22,137.14,25.59,267.68-41.99,310.03-150.24.3-.84.78-1.56,1.26-2.28,16.7-23.43,31-147.87,72.16-181.79l1.09-.8c22.96-14.87,65.07-2.35,67.49,36.26,4.27,23.01-4.02,41.09-11.65,59.89-26.37,64.88-12.55,57.91-42.95,130.89-40.02,96.06-97.93,196.16-230.26,222.78-12.68,2.55-25.69,2.86-38.59,1.89-3.81-.29-7.63-.51-11.44-.66-148.74-7.39-299.81,64.52-308.28,225.51-.3,5.77,3.84,10.87,9.61,11.53,199.25,22.89,361.39-21.99,483.93-107.29C1688.8,942.76,1600.74,71.97,851.24,39.83ZM992.22,677.54c3.84,8.59,9.31,21.87,12.25,35.38.12.6.18,1.2.24,1.8,2.88,36.22-15.92,66.38-48.6,78.57-1.26.48-2.64.72-4.02.66-45.11-.96-145.97-.3-219.68,19.04-.36.06-.72.18-1.08.3-149.94,52.92-215.77,149.28-241.9,246.59-5.83,21.63-9.67,43.25-12.07,64.46-.18,1.26-.06,2.46.24,3.72.24,1.2.36,2.94-.48,4.45-2.04,3.48-8.29,3.24-10.27,3.18-21.08.84-51.48-63.8-60.61-85.72-.12-.36-.3-.66-.48-.96-3.72-6.55-7.15-13.28-10.27-20.24-71.42-160.15,26.43-424.28,283.05-395.57,20.9,3.96,5.17-8.23.18-9.67-32.8-19.52-68.6-99.42-43.61-162.55,1.5-3.78.9-7.93-1.62-11.11-35.32-44.45-41.99-122.66-32.86-161.05.96-4.21,4.39-7.33,8.65-8.17,62.05-12.37,126.15,46.86,156.3,80.37,2.04,2.28,5.77,5.77,7.93,3.6,31.36-30.94,148.8-21.87,165.43-.42.84,1.08,2.82.9,3.36,0,29.85-51.66,106.27-83.92,160.69-83.68,5.29,0,9.79,3.78,10.63,9.01,6.85,41.57,5.05,117.56-35.02,155.76-3.48,3.24-4.39,8.35-2.22,12.55,35.8,69.44-19.58,174.09-79.17,205.68-5.11,2.64-7.33,8.71-4.99,14ZM1135.97,652.26c-.24,2.1-1.32,4.08-2.64,5.71-21.15,25.05-14.18,58.33-20.78,89.38-1.2,5.59-6.49,9.25-12.13,8.47-15.08-1.98-32.2-8.89-41.45-12.62-4.08-1.62-6.73-5.53-6.79-9.91-.42-34.24-4.39-90.89,29.85-107.41,14.12-14.54,57.55-9.25,53.94,26.37ZM1275.46,657.42c-.66,2.34-2.28,4.32-4.26,5.77-37.84,27.09-34.96,75.87-54.54,115.76-2.4,4.87-8.23,7.21-13.28,5.23-.06,0-.12-.06-.18-.06-35.2-13.88-43.37-37.06-44.99-43.49-.24-1.02-.36-2.04-.3-3.12,2.1-36.34,16.34-98.94,46.43-121.7,19.1-17.72,84.7-7.93,71.12,41.63Z"/>
  </g>
  <g>
    <path class="cls-1" d="M1234.31,1258.79c-122.54,85.3-284.68,130.17-483.93,107.29-5.77-.66-9.91-5.77-9.61-11.53,8.47-160.99,159.55-232.89,308.28-225.51-26.73,32.08-64.22,69.44-110.17,109.81,16.34-.54,32.98-.84,49.74-.84,88.9,0,172.52,7.51,245.69,20.78Z"/>
    <path class="cls-1" d="M539.17,1083.32c-26.07,55.08-42.23,113.77-48.3,166.7-.9,8.05-9.97,12.19-16.76,7.75-39.65-25.83-74.91-54.66-105.9-85.9,6.91.06,13.76.18,20.54.36-37-58.39-49.68-103.62-29.92-124.59,6.01-6.43,22.11-15.2,36.64-18.86,3.12,6.97,6.55,13.7,10.27,20.24.18.3.36.6.48.96,9.13,21.93,39.53,86.56,60.61,85.72,1.98.06,9.39-.4,10.51-11.35,2.16-21.12.04-26.42,12.07-64.46,15.62,6.61,32.32,14.42,49.74,23.43Z"/>
  </g>
</svg>